<svg width="17" height="18" viewBox="0 0 17 18" fill="none" xmlns="http://www.w3.org/2000/svg">
<mask id="path-1-inside-1_7_13291" fill="white">
<path d="M0.325129 8.77407C0.325129 7.68571 0.539498 6.60801 0.955998 5.60249C1.3725 4.59697 1.98297 3.68334 2.75256 2.91375C3.52215 2.14416 4.43578 1.53369 5.4413 1.11719C6.44681 0.70069 7.52452 0.486322 8.61288 0.486322C9.70125 0.486322 10.779 0.700691 11.7845 1.11719C12.79 1.53369 13.7036 2.14416 14.4732 2.91375C15.2428 3.68334 15.8533 4.59697 16.2698 5.60249C16.6863 6.60801 16.9006 7.68571 16.9006 8.77408L8.61288 8.77407L0.325129 8.77407Z"/>
</mask>
<path d="M0.325129 8.77407C0.325129 7.68571 0.539498 6.60801 0.955998 5.60249C1.3725 4.59697 1.98297 3.68334 2.75256 2.91375C3.52215 2.14416 4.43578 1.53369 5.4413 1.11719C6.44681 0.70069 7.52452 0.486322 8.61288 0.486322C9.70125 0.486322 10.779 0.700691 11.7845 1.11719C12.79 1.53369 13.7036 2.14416 14.4732 2.91375C15.2428 3.68334 15.8533 4.59697 16.2698 5.60249C16.6863 6.60801 16.9006 7.68571 16.9006 8.77408L8.61288 8.77407L0.325129 8.77407Z" fill="url(#paint0_linear_7_13291)" fill-opacity="0.5" stroke="#AFAFB0" stroke-width="2.48633" mask="url(#path-1-inside-1_7_13291)"/>
<circle cx="8.61301" cy="8.77408" r="7.66617" stroke="#AFAFB0" stroke-width="1.24316"/>
<circle cx="8.61291" cy="8.77404" r="2.39215" fill="#FEFEFE" stroke="#AFAFB0" stroke-width="1.24316"/>
<path d="M5.976 8.77405H0.325256" stroke="#AFAFB0" stroke-width="1.24316"/>
<path d="M15.9736 8.77405L10.7575 8.77405" stroke="#AFAFB0" stroke-width="1.24316"/>
<defs>
<linearGradient id="paint0_linear_7_13291" x1="19.387" y1="0.486322" x2="-2.1612" y2="8.35969" gradientUnits="userSpaceOnUse">
<stop stop-color="#AFAFB0"/>
<stop offset="1" stop-color="#D4D7DE"/>
</linearGradient>
</defs>
</svg>
